<svg version="1.1" id="Layer_1" xmlns="http://www.w3.org/2000/svg" xmlns:xlink="http://www.w3.org/1999/xlink" x="0px" y="0px"
	 width="100%" viewBox="0 0 296 279" enable-background="new 0 0 296 279" xml:space="preserve">
<path fill="" opacity="000000" stroke="none" 
	d="
M176.000000,280.000000 
	C117.333344,280.000000 59.166679,280.000000 1.000016,280.000000 
	C1.000010,187.000015 1.000010,94.000038 1.000005,1.000041 
	C99.666634,1.000027 198.333267,1.000027 296.999939,1.000014 
	C296.999939,93.999962 296.999939,186.999924 296.999969,279.999939 
	C256.833344,280.000000 216.666672,280.000000 176.000000,280.000000 
M95.749611,107.449333 
	C90.916420,112.133934 88.964211,117.872932 88.992699,124.558914 
	C89.087845,146.888184 88.972038,169.218307 89.050751,191.547699 
	C89.112091,208.949997 99.660393,219.785431 116.893112,219.928482 
	C138.387939,220.106918 159.885773,220.116348 181.381012,219.985275 
	C197.320221,219.888092 207.771164,209.667053 207.916534,193.736877 
	C208.143097,168.910049 208.084717,144.078476 207.831894,119.252144 
	C207.800644,116.184593 206.678879,112.248856 204.589020,110.277351 
	C201.006775,106.898010 201.074570,103.113602 201.038940,99.030022 
	C200.996765,94.197762 201.455307,89.308296 200.858673,84.548691 
	C200.270828,79.859421 199.365341,74.949905 197.340240,70.743073 
	C184.160004,43.362946 150.649368,36.088604 126.141510,46.627541 
	C106.732513,54.973854 95.962708,69.452911 96.296173,91.219460 
	C96.375229,96.379890 96.218597,101.543930 95.749611,107.449333 
M165.499908,15.969227 
	C155.338196,15.974655 145.153687,15.573522 135.023514,16.141457 
	C129.159988,16.470186 123.248444,17.914221 117.595207,19.634262 
	C103.370735,23.962170 93.058426,33.968323 83.229919,44.479374 
	C79.872002,48.070480 80.437126,54.616428 84.038017,57.510670 
	C87.316948,60.146133 90.054283,58.943897 93.989357,53.733173 
	C104.453102,39.877319 117.234062,29.477364 135.279938,27.779942 
	C142.216003,27.127525 149.246445,26.829754 156.198730,27.145224 
	C167.640930,27.664429 178.600006,30.174702 187.832764,37.618645 
	C191.329880,40.438206 194.676743,43.472736 198.351608,46.037422 
	C206.645752,51.825878 220.814438,48.172523 224.664490,39.432571 
	C229.873688,27.607214 222.493256,15.763882 209.476013,15.628976 
	C195.153397,15.480544 180.825546,15.834370 165.499908,15.969227 
M189.530731,262.117462 
	C195.049301,258.282684 200.847916,254.782761 205.982224,250.488571 
	C209.101791,247.879456 210.207504,243.980606 206.426132,240.515717 
	C203.272079,237.625595 199.693115,238.078674 196.107681,242.261612 
	C187.714447,252.053497 177.104736,256.179688 164.323120,256.079956 
	C137.993790,255.874481 111.661720,256.026001 85.330788,256.014008 
	C83.898491,256.013367 82.466255,255.860977 81.807335,255.823364 
	C79.979950,251.431732 78.907593,247.307159 76.717468,243.901382 
	C71.565765,235.890198 56.854298,232.889832 49.493324,237.918030 
	C44.145088,241.571335 41.397594,249.115799 43.226173,255.127182 
	C45.442177,262.412201 51.695244,266.868042 60.520679,266.888275 
	C95.849579,266.969299 131.181976,267.171783 166.505280,266.719299 
	C173.968628,266.623688 181.399048,263.955872 189.530731,262.117462 
M37.541294,215.660614 
	C39.858971,217.099808 42.100178,219.608047 44.508480,219.780319 
	C52.125710,220.325195 59.814556,220.228668 67.458023,219.929169 
	C73.218193,219.703430 77.438530,214.742920 78.626740,207.732529 
	C79.565369,202.194672 76.940201,196.886551 71.752792,194.802979 
	C69.206009,193.780029 66.354980,193.263504 63.602112,193.064423 
	C59.627899,192.776962 55.593052,193.273682 51.627316,192.932785 
	C36.846672,191.662247 33.302902,203.094254 37.541294,215.660614 
M221.047195,186.024841 
	C222.489029,194.441986 227.724594,198.954071 235.869095,200.603943 
	C248.083969,203.078323 260.159515,192.856735 258.287292,181.560059 
	C256.796722,172.566101 247.541885,166.267410 237.013702,167.029037 
	C227.675171,167.704590 219.846680,174.033112 221.047195,186.024841 
M41.741344,107.005424 
	C51.141102,110.294746 60.729912,109.759254 70.095352,107.441231 
	C75.532890,106.095398 78.766174,98.791634 77.811188,92.720276 
	C76.899628,86.925049 72.322464,83.003052 65.874901,82.891220 
	C58.232857,82.758690 50.561901,82.562042 42.956772,83.119843 
	C40.765469,83.280556 37.831619,85.498802 36.839870,87.548637 
	C33.866119,93.695053 36.040016,101.903549 41.741344,107.005424 
M56.973412,123.141052 
	C54.653057,123.136421 52.305496,122.899834 50.017159,123.168213 
	C41.154205,124.207680 35.914188,129.932632 36.001102,138.254700 
	C36.096237,147.364258 40.909454,152.747375 50.152908,153.568329 
	C54.093288,153.918320 58.131054,153.876114 62.063473,153.449280 
	C68.221626,152.780853 71.744835,148.771088 72.286186,142.551941 
	C73.188026,132.191589 69.040665,126.667160 56.973412,123.141052 
M220.054062,96.699265 
	C221.301193,97.079277 222.545334,97.778862 223.795914,97.790550 
	C238.594040,97.928802 253.393143,98.002113 268.191986,98.001022 
	C272.039520,98.000740 274.854828,96.035286 274.692383,92.061012 
	C274.534729,88.203392 271.848389,86.400833 267.864105,86.427086 
	C253.731995,86.520210 239.597687,86.392273 225.467255,86.579178 
	C218.955856,86.665314 217.227173,89.691750 220.054062,96.699265 
M217.888596,71.495964 
	C228.030655,71.568977 238.172684,71.672836 248.314819,71.686310 
	C250.122498,71.688713 252.294785,71.870041 253.648575,70.979950 
	C255.434250,69.805939 257.937561,67.395760 257.668762,65.987213 
	C257.294769,64.027634 254.678696,61.070274 252.950729,61.020397 
	C239.163651,60.622475 225.359634,60.816490 211.560822,60.815052 
	C208.390915,60.814724 207.639450,62.699211 207.863403,65.410728 
	C208.348862,71.288445 212.741226,71.263359 217.888596,71.495964 
M221.984177,142.287598 
	C221.318649,148.377304 222.593994,149.977997 228.425446,150.004868 
	C241.246628,150.063934 254.068253,150.022354 266.889496,150.073669 
	C270.505249,150.088135 273.944672,149.614029 273.904449,145.066727 
	C273.865692,140.688522 270.920837,139.259933 266.806702,139.295654 
	C253.823120,139.408371 240.836945,139.295349 227.855530,139.503448 
	C225.953110,139.533966 224.071075,140.835251 221.984177,142.287598 
M51.367065,166.552155 
	C48.534950,166.512970 45.702858,166.444443 42.870708,166.441940 
	C39.264912,166.438751 36.701378,167.503113 36.831543,171.852615 
	C36.951569,175.863327 38.507824,178.090042 42.814163,178.062469 
	C51.979248,178.003754 61.145214,178.078430 70.310806,178.104385 
	C74.351044,178.115845 77.959427,177.106949 77.955620,172.309555 
	C77.951828,167.525009 74.305847,166.443527 70.295357,166.434860 
	C64.298714,166.421906 58.301853,166.508286 51.367065,166.552155 
M148.681839,234.335587 
	C147.519577,234.351074 146.353867,234.431366 145.195679,234.369919 
	C141.680145,234.183395 139.065826,235.386673 139.336639,239.284363 
	C139.575974,242.728592 141.327469,245.154800 145.390640,245.044052 
	C149.870712,244.921951 154.357132,245.016983 158.840652,245.041367 
	C162.802933,245.062897 164.706284,242.577484 164.785690,239.152267 
	C164.864090,235.769974 162.416702,234.322144 159.085297,234.368866 
	C155.931976,234.413101 152.777115,234.349030 148.681839,234.335587 
M237.960068,125.111259 
	C241.109772,124.344444 243.573639,123.007645 243.076950,119.113495 
	C242.555786,115.027458 239.488617,114.880692 236.415268,114.817940 
	C233.102722,114.750298 229.785950,114.846199 226.475357,114.737968 
	C223.183731,114.630379 220.836441,115.551407 221.026581,119.370010 
	C221.199951,122.851334 222.968307,124.924644 226.617462,124.995476 
	C230.096832,125.063011 233.577438,125.065277 237.960068,125.111259 
z"/>
<path fill="#0F3D74" opacity="1.000000" stroke="none" 
	d="
M95.959991,107.077820 
	C96.218597,101.543930 96.375229,96.379890 96.296173,91.219460 
	C95.962708,69.452911 106.732513,54.973854 126.141510,46.627541 
	C150.649368,36.088604 184.160004,43.362946 197.340240,70.743073 
	C199.365341,74.949905 200.270828,79.859421 200.858673,84.548691 
	C201.455307,89.308296 200.996765,94.197762 201.038940,99.030022 
	C201.074570,103.113602 201.006775,106.898010 204.589020,110.277351 
	C206.678879,112.248856 207.800644,116.184593 207.831894,119.252144 
	C208.084717,144.078476 208.143097,168.910049 207.916534,193.736877 
	C207.771164,209.667053 197.320221,219.888092 181.381012,219.985275 
	C159.885773,220.116348 138.387939,220.106918 116.893112,219.928482 
	C99.660393,219.785431 89.112091,208.949997 89.050751,191.547699 
	C88.972038,169.218307 89.087845,146.888184 88.992699,124.558914 
	C88.964211,117.872932 90.916420,112.133934 95.959991,107.077820 
M183.676987,110.825302 
	C174.986725,102.343819 164.463211,98.157463 152.468384,96.903191 
	C131.264648,94.685944 116.361954,105.649216 103.109024,120.100121 
	C101.905235,121.412727 101.203300,123.684326 101.192253,125.516159 
	C101.057510,147.846756 100.984558,170.179214 101.144981,192.509399 
	C101.207748,201.246841 108.114578,208.202301 116.642563,208.232529 
	C138.305405,208.309311 159.969940,208.239334 181.631927,208.032074 
	C189.017242,207.961411 195.302032,201.485245 195.307861,194.160507 
	C195.326187,171.170425 195.241409,148.179916 195.055557,125.190704 
	C195.040955,123.384087 194.404739,121.169968 193.245728,119.867569 
	C190.495148,116.776672 187.256805,114.119835 183.676987,110.825302 
M158.315475,54.989193 
	C151.717102,55.010960 144.931976,54.040966 138.555573,55.241608 
	C119.893013,58.755688 104.924141,76.726372 109.454002,96.653732 
	C135.894730,80.589218 162.126831,80.555534 188.168030,97.702660 
	C189.561081,70.861603 178.999466,60.323063 158.315475,54.989193 
z"/>
<path fill="#0E3C73" opacity="1.000000" stroke="none" 
	d="
M165.999939,15.969303 
	C180.825546,15.834370 195.153397,15.480544 209.476013,15.628976 
	C222.493256,15.763882 229.873688,27.607214 224.664490,39.432571 
	C220.814438,48.172523 206.645752,51.825878 198.351608,46.037422 
	C194.676743,43.472736 191.329880,40.438206 187.832764,37.618645 
	C178.600006,30.174702 167.640930,27.664429 156.198730,27.145224 
	C149.246445,26.829754 142.216003,27.127525 135.279938,27.779942 
	C117.234062,29.477364 104.453102,39.877319 93.989357,53.733173 
	C90.054283,58.943897 87.316948,60.146133 84.038017,57.510670 
	C80.437126,54.616428 79.872002,48.070480 83.229919,44.479374 
	C93.058426,33.968323 103.370735,23.962170 117.595207,19.634262 
	C123.248444,17.914221 129.159988,16.470186 135.023514,16.141457 
	C145.153687,15.573522 155.338196,15.974655 165.999939,15.969303 
z"/>
<path fill="#0F3D74" opacity="1.000000" stroke="none" 
	d="
M189.187683,262.295349 
	C181.399048,263.955872 173.968628,266.623688 166.505280,266.719299 
	C131.181976,267.171783 95.849579,266.969299 60.520679,266.888275 
	C51.695244,266.868042 45.442177,262.412201 43.226173,255.127182 
	C41.397594,249.115799 44.145088,241.571335 49.493324,237.918030 
	C56.854298,232.889832 71.565765,235.890198 76.717468,243.901382 
	C78.907593,247.307159 79.979950,251.431732 81.807335,255.823364 
	C82.466255,255.860977 83.898491,256.013367 85.330788,256.014008 
	C111.661720,256.026001 137.993790,255.874481 164.323120,256.079956 
	C177.104736,256.179688 187.714447,252.053497 196.107681,242.261612 
	C199.693115,238.078674 203.272079,237.625595 206.426132,240.515717 
	C210.207504,243.980606 209.101791,247.879456 205.982224,250.488571 
	C200.847916,254.782761 195.049301,258.282684 189.187683,262.295349 
z"/>
<path fill="#0D3C73" opacity="1.000000" stroke="none" 
	d="
M37.345963,215.309769 
	C33.302902,203.094254 36.846672,191.662247 51.627316,192.932785 
	C55.593052,193.273682 59.627899,192.776962 63.602112,193.064423 
	C66.354980,193.263504 69.206009,193.780029 71.752792,194.802979 
	C76.940201,196.886551 79.565369,202.194672 78.626740,207.732529 
	C77.438530,214.742920 73.218193,219.703430 67.458023,219.929169 
	C59.814556,220.228668 52.125710,220.325195 44.508480,219.780319 
	C42.100178,219.608047 39.858971,217.099808 37.345963,215.309769 
z"/>
<path fill="#0E3C74" opacity="1.000000" stroke="none" 
	d="
M221.031036,185.596207 
	C219.846680,174.033112 227.675171,167.704590 237.013702,167.029037 
	C247.541885,166.267410 256.796722,172.566101 258.287292,181.560059 
	C260.159515,192.856735 248.083969,203.078323 235.869095,200.603943 
	C227.724594,198.954071 222.489029,194.441986 221.031036,185.596207 
z"/>
<path fill="#0D3C73" opacity="1.000000" stroke="none" 
	d="
M41.417267,106.800186 
	C36.040016,101.903549 33.866119,93.695053 36.839870,87.548637 
	C37.831619,85.498802 40.765469,83.280556 42.956772,83.119843 
	C50.561901,82.562042 58.232857,82.758690 65.874901,82.891220 
	C72.322464,83.003052 76.899628,86.925049 77.811188,92.720276 
	C78.766174,98.791634 75.532890,106.095398 70.095352,107.441231 
	C60.729912,109.759254 51.141102,110.294746 41.417267,106.800186 
z"/>
<path fill="#0E3D74" opacity="1.000000" stroke="none" 
	d="
M57.394127,123.208351 
	C69.040665,126.667160 73.188026,132.191589 72.286186,142.551941 
	C71.744835,148.771088 68.221626,152.780853 62.063473,153.449280 
	C58.131054,153.876114 54.093288,153.918320 50.152908,153.568329 
	C40.909454,152.747375 36.096237,147.364258 36.001102,138.254700 
	C35.914188,129.932632 41.154205,124.207680 50.017159,123.168213 
	C52.305496,122.899834 54.653057,123.136421 57.394127,123.208351 
z"/>
<path fill="#164378" opacity="1.000000" stroke="none" 
	d="
M219.781540,96.402359 
	C217.227173,89.691750 218.955856,86.665314 225.467255,86.579178 
	C239.597687,86.392273 253.731995,86.520210 267.864105,86.427086 
	C271.848389,86.400833 274.534729,88.203392 274.692383,92.061012 
	C274.854828,96.035286 272.039520,98.000740 268.191986,98.001022 
	C253.393143,98.002113 238.594040,97.928802 223.795914,97.790550 
	C222.545334,97.778862 221.301193,97.079277 219.781540,96.402359 
z"/>
<path fill="#134076" opacity="1.000000" stroke="none" 
	d="
M217.438385,71.479538 
	C212.741226,71.263359 208.348862,71.288445 207.863403,65.410728 
	C207.639450,62.699211 208.390915,60.814724 211.560822,60.815052 
	C225.359634,60.816490 239.163651,60.622475 252.950729,61.020397 
	C254.678696,61.070274 257.294769,64.027634 257.668762,65.987213 
	C257.937561,67.395760 255.434250,69.805939 253.648575,70.979950 
	C252.294785,71.870041 250.122498,71.688713 248.314819,71.686310 
	C238.172684,71.672836 228.030655,71.568977 217.438385,71.479538 
z"/>
<path fill="#113F75" opacity="1.000000" stroke="none" 
	d="
M222.081894,141.918060 
	C224.071075,140.835251 225.953110,139.533966 227.855530,139.503448 
	C240.836945,139.295349 253.823120,139.408371 266.806702,139.295654 
	C270.920837,139.259933 273.865692,140.688522 273.904449,145.066727 
	C273.944672,149.614029 270.505249,150.088135 266.889496,150.073669 
	C254.068253,150.022354 241.246628,150.063934 228.425446,150.004868 
	C222.593994,149.977997 221.318649,148.377304 222.081894,141.918060 
z"/>
<path fill="#0E3C73" opacity="1.000000" stroke="none" 
	d="
M51.836075,166.552277 
	C58.301853,166.508286 64.298714,166.421906 70.295357,166.434860 
	C74.305847,166.443527 77.951828,167.525009 77.955620,172.309555 
	C77.959427,177.106949 74.351044,178.115845 70.310806,178.104385 
	C61.145214,178.078430 51.979248,178.003754 42.814163,178.062469 
	C38.507824,178.090042 36.951569,175.863327 36.831543,171.852615 
	C36.701378,167.503113 39.264912,166.438751 42.870708,166.441940 
	C45.702858,166.444443 48.534950,166.512970 51.836075,166.552277 
z"/>
<path fill="#184479" opacity="1.000000" stroke="none" 
	d="
M149.152390,234.334091 
	C152.777115,234.349030 155.931976,234.413101 159.085297,234.368866 
	C162.416702,234.322144 164.864090,235.769974 164.785690,239.152267 
	C164.706284,242.577484 162.802933,245.062897 158.840652,245.041367 
	C154.357132,245.016983 149.870712,244.921951 145.390640,245.044052 
	C141.327469,245.154800 139.575974,242.728592 139.336639,239.284363 
	C139.065826,235.386673 141.680145,234.183395 145.195679,234.369919 
	C146.353867,234.431366 147.519577,234.351074 149.152390,234.334091 
z"/>
<path fill="#103E75" opacity="1.000000" stroke="none" 
	d="
M237.508789,125.103745 
	C233.577438,125.065277 230.096832,125.063011 226.617462,124.995476 
	C222.968307,124.924644 221.199951,122.851334 221.026581,119.370010 
	C220.836441,115.551407 223.183731,114.630379 226.475357,114.737968 
	C229.785950,114.846199 233.102722,114.750298 236.415268,114.817940 
	C239.488617,114.880692 242.555786,115.027458 243.076950,119.113495 
	C243.573639,123.007645 241.109772,124.344444 237.508789,125.103745 
z"/>
<path fill="#" opacity="000000" stroke="none" 
	d="
M183.946289,111.056442 
	C187.256805,114.119835 190.495148,116.776672 193.245728,119.867569 
	C194.404739,121.169968 195.040955,123.384087 195.055557,125.190704 
	C195.241409,148.179916 195.326187,171.170425 195.307861,194.160507 
	C195.302032,201.485245 189.017242,207.961411 181.631927,208.032074 
	C159.969940,208.239334 138.305405,208.309311 116.642563,208.232529 
	C108.114578,208.202301 101.207748,201.246841 101.144981,192.509399 
	C100.984558,170.179214 101.057510,147.846756 101.192253,125.516159 
	C101.203300,123.684326 101.905235,121.412727 103.109024,120.100121 
	C116.361954,105.649216 131.264648,94.685944 152.468384,96.903191 
	C164.463211,98.157463 174.986725,102.343819 183.946289,111.056442 
M134.892929,186.094254 
	C133.888885,195.189285 134.745850,196.089645 144.047775,195.992081 
	C148.863174,195.941574 153.680222,196.048157 158.495590,195.996277 
	C163.733047,195.939880 165.398605,193.923752 164.529831,188.876480 
	C163.655869,183.799149 163.395554,178.515640 161.768478,173.692871 
	C159.529892,167.057541 161.127441,162.755859 166.208618,157.859604 
	C175.840393,148.578339 174.751923,133.218750 164.821533,123.452080 
	C155.286133,114.073883 140.271500,113.937973 130.668747,123.142899 
	C119.163162,134.171844 120.261856,151.552383 133.424698,161.253006 
	C136.726715,163.686508 137.760513,166.047684 137.047668,169.906906 
	C136.112289,174.971115 135.626038,180.118256 134.892929,186.094254 
z"/>
<path fill="#" opacity="000000" stroke="none" 
	d="
M158.741348,55.014206 
	C178.999466,60.323063 189.561081,70.861603 188.168030,97.702660 
	C162.126831,80.555534 135.894730,80.589218 109.454002,96.653732 
	C104.924141,76.726372 119.893013,58.755688 138.555573,55.241608 
	C144.931976,54.040966 151.717102,55.010960 158.741348,55.014206 
z"/>
<path fill="#0F3D74" opacity="1.000000" stroke="none" 
	d="
M134.919769,185.661987 
	C135.626038,180.118256 136.112289,174.971115 137.047668,169.906906 
	C137.760513,166.047684 136.726715,163.686508 133.424698,161.253006 
	C120.261856,151.552383 119.163162,134.171844 130.668747,123.142899 
	C140.271500,113.937973 155.286133,114.073883 164.821533,123.452080 
	C174.751923,133.218750 175.840393,148.578339 166.208618,157.859604 
	C161.127441,162.755859 159.529892,167.057541 161.768478,173.692871 
	C163.395554,178.515640 163.655869,183.799149 164.529831,188.876480 
	C165.398605,193.923752 163.733047,195.939880 158.495590,195.996277 
	C153.680222,196.048157 148.863174,195.941574 144.047775,195.992081 
	C134.745850,196.089645 133.888885,195.189285 134.919769,185.661987 
M158.774109,145.921417 
	C159.177338,144.502319 159.824402,143.102585 159.938889,141.660553 
	C160.308502,137.005707 158.760544,133.218613 154.479095,130.854492 
	C150.136749,128.456726 145.885788,127.951248 141.382126,130.703049 
	C137.027481,133.363785 135.315292,137.057877 135.992676,141.981766 
	C136.646225,146.732452 140.921524,151.527130 145.339340,152.549622 
	C150.182022,153.670441 155.024139,151.459122 158.774109,145.921417 
z"/>
<path fill="#" opacity="000000" stroke="none" 
	d="
M158.577301,146.257660 
	C155.024139,151.459122 150.182022,153.670441 145.339340,152.549622 
	C140.921524,151.527130 136.646225,146.732452 135.992676,141.981766 
	C135.315292,137.057877 137.027481,133.363785 141.382126,130.703049 
	C145.885788,127.951248 150.136749,128.456726 154.479095,130.854492 
	C158.760544,133.218613 160.308502,137.005707 159.938889,141.660553 
	C159.824402,143.102585 159.177338,144.502319 158.577301,146.257660 
z"/>
</svg>